<?xml version="1.0" encoding="utf-8"?>
<!-- Generator: Adobe Illustrator 19.1.0, SVG Export Plug-In . SVG Version: 6.00 Build 0)  -->
<svg version="1.1" id="Layer_1" xmlns="http://www.w3.org/2000/svg" xmlns:xlink="http://www.w3.org/1999/xlink" x="0px" y="0px"
	 viewBox="0 0 300 100" style="enable-background:new 0 0 300 100;" xml:space="preserve">
<style type="text/css">
	.st0{fill:#42B989;}
	.st1{fill:#FFFFFF;}
	.st2{opacity:0.85;}
</style>
<g>
	<path class="st0" d="M22.9,30l-3.4,3.4c-1.2-1.8-3.2-3-5-3.1c-3.3-0.3-6,2.2-6.3,5.6c-0.3,3.5,2,6.3,5.3,6.6c1.8,0.1,3.9-0.7,5.4-2
		l2.8,3.5c-2.4,2.1-5.9,3.4-8.9,3.1C6.6,46.7,2.3,41.7,2.8,35.6c0.5-6,5.6-10.2,12-9.7C17.9,26.1,21,27.7,22.9,30z"/>
</g>
<g>
	<path class="st0" d="M20,52.8l3.4-3.4c1.2,1.8,3.2,3,5,3.1c3.3,0.3,6-2.2,6.3-5.6c0.3-3.5-2-6.3-5.3-6.6c-1.8-0.1-3.9,0.7-5.4,2
		l-2.8-3.5c2.4-2.1,5.9-3.4,8.9-3.1c6.3,0.5,10.6,5.5,10.1,11.6c-0.5,6-5.6,10.2-12,9.7C25.1,56.8,22,55.1,20,52.8z"/>
</g>
<g>
	<path class="st1" d="M53,31.8c0-4,3.1-6.8,7.1-6.8c3.2,0,4.8,1.8,5.7,3.5L62.9,30c-0.4-1-1.5-1.9-2.8-1.9c-2.1,0-3.6,1.6-3.6,3.8
		s1.5,3.8,3.6,3.8c1.3,0,2.4-0.9,2.8-1.9l2.9,1.4c-0.8,1.7-2.5,3.5-5.7,3.5C56.1,38.6,53,35.9,53,31.8z"/>
	<path class="st1" d="M78.4,38.4l-0.6-1.9h-5.1L72,38.4h-3.8l4.9-13.1h4.2l4.9,13.1H78.4z M75.2,28.6l-1.7,4.9h3.3L75.2,28.6z"/>
	<path class="st1" d="M97.2,38.4v-8.5l-3.3,8.5h-1.5l-3.3-8.5v8.5h-3.4V25.3h4.7l2.7,7.1l2.7-7.1h4.7v13.1H97.2z"/>
	<path class="st1" d="M105.4,38.4V25.3h9.6v2.9h-6.2v2h6.1v2.9h-6.1v2.2h6.2v2.9H105.4z"/>
	<path class="st1" d="M126.7,38.4l-2.2-4.4h-1.7v4.4h-3.4V25.3h6.5c2.9,0,4.5,1.9,4.5,4.3c0,2.3-1.4,3.5-2.6,3.9l2.7,4.8H126.7z
		 M127.1,29.6c0-0.9-0.7-1.4-1.6-1.4h-2.7V31h2.7C126.3,31,127.1,30.6,127.1,29.6z"/>
	<path class="st1" d="M134.2,31.8c0-4,3-6.8,7-6.8s7,2.8,7,6.8s-3,6.8-7,6.8S134.2,35.8,134.2,31.8z M144.7,31.8
		c0-2.1-1.4-3.8-3.5-3.8c-2.2,0-3.6,1.6-3.6,3.8c0,2.1,1.4,3.8,3.6,3.8C143.3,35.6,144.7,34,144.7,31.8z"/>
	<path class="st1" d="M161.3,38.4l-5.5-7.6v7.6h-3.4V25.3h3.5l5.3,7.2v-7.2h3.4v13.1H161.3z"/>
	<path class="st1" d="M176.2,31.8c0-4,3.1-6.8,7.1-6.8c3.2,0,4.8,1.8,5.7,3.5l-2.9,1.4c-0.4-1-1.5-1.9-2.8-1.9
		c-2.1,0-3.6,1.6-3.6,3.8s1.5,3.8,3.6,3.8c1.3,0,2.4-0.9,2.8-1.9l2.9,1.4c-0.8,1.7-2.5,3.5-5.7,3.5
		C179.3,38.6,176.2,35.9,176.2,31.8z"/>
	<path class="st1" d="M201.6,38.4l-0.6-1.9h-5.1l-0.6,1.9h-3.8l4.9-13.1h4.2l4.9,13.1H201.6z M198.4,28.6l-1.7,4.9h3.3L198.4,28.6z"
		/>
	<path class="st1" d="M220.4,38.4v-8.5l-3.3,8.5h-1.5l-3.3-8.5v8.5h-3.4V25.3h4.7l2.7,7.1l2.7-7.1h4.7v13.1H220.4z"/>
	<path class="st1" d="M228.6,38.4V25.3h6.5c2.9,0,4.5,2,4.5,4.3c0,2.3-1.6,4.3-4.5,4.3h-3.2v4.4H228.6z M236.2,29.7
		c0-0.9-0.7-1.4-1.6-1.4h-2.7V31h2.7C235.6,31,236.2,30.5,236.2,29.7z"/>
	<path class="st1" d="M243.7,38.4V25.3h7.4c2.6,0,3.8,1.7,3.8,3.3c0,1.6-1,2.7-2.2,3c1.4,0.2,2.5,1.5,2.5,3.2c0,1.9-1.3,3.5-3.8,3.5
		H243.7z M251.5,29.2c0-0.6-0.5-1.1-1.2-1.1H247v2.2h3.3C251,30.3,251.5,29.9,251.5,29.2z M251.7,34.4c0-0.6-0.5-1.2-1.3-1.2H247
		v2.3h3.4C251.2,35.5,251.7,35.1,251.7,34.4z"/>
	<path class="st1" d="M259.5,38.4V25.3h9.6v2.9h-6.2v2h6.1v2.9h-6.1v2.2h6.2v2.9H259.5z"/>
	<path class="st1" d="M273.5,38.4V25.3h3.4v10.1h5.2v2.9H273.5z"/>
	<path class="st1" d="M286.4,38.4V25.3h3.4v10.1h5.2v2.9H286.4z"/>
</g>
<g class="st2">
	<path class="st1" d="M58,48.7c2,0,3.1,0.4,3.9,1c1.3,0.9,1.7,2.5,1.7,3.8c0,2.3-1.2,4.5-2.8,5.6c-1.2,0.8-2.5,1.1-4.2,1.1
		c-0.7,0-1.7,0-2.1,0c-0.6,0-1.3,0-2,0c0-0.3,0.1-0.6,0.1-0.8l1.2,0c0.1,0,0.1,0,0.1-0.1l1.6-9.6l-1.3-0.1c0.1-0.3,0.1-0.6,0.2-0.8
		C55.4,48.7,56.7,48.7,58,48.7z M55.3,58.7c-0.1,0.5,0.1,0.7,1.4,0.7c1.6,0,2.7-0.4,3.5-1.1c1-0.8,1.9-2.4,1.9-4.7c0-1-0.2-2-1-2.9
		c-0.7-0.7-1.6-1.2-3.3-1.2c-0.4,0-0.8,0-1,0.1L55.3,58.7z"/>
	<path class="st1" d="M66.7,54c0.9-1,1.7-1.4,2.6-1.4c1.3,0,1.9,1,1.9,1.9c-0.1,0.6-0.5,1.3-1,1.6c-1,0.5-2.2,0.7-3.7,0.7
		c-0.1,0.4-0.2,1-0.2,1.4c0,0.8,0.4,1.3,1.2,1.3c0.7,0,1.8-0.4,2.8-0.9c0.1,0.2,0.2,0.5,0.3,0.7c-1,0.6-2.3,1.2-3.5,1.2
		c-0.9,0-2.1-0.7-2.1-2.1C65,57.2,65.5,55.3,66.7,54z M67.6,54.2c-0.3,0.4-0.6,0.9-0.9,1.8c1,0,1.9-0.1,2.5-0.4
		c0.4-0.2,0.7-0.5,0.7-1c0-0.6-0.3-1.1-1-1.1C68.4,53.5,67.9,53.8,67.6,54.2z"/>
	<path class="st1" d="M77,53.9c0-0.1,0-0.2-0.1-0.2c-0.2-0.1-0.5-0.2-0.9-0.2c-0.3,0-0.7,0-1,0.2c-0.3,0.2-0.7,0.5-0.7,1.1
		c0,0.7,0.4,0.9,1.2,1.2c1.2,0.5,1.9,1,1.9,2c0,0.8-0.4,1.6-1.2,2c-0.5,0.3-1.1,0.4-2.2,0.4c-0.7,0-1.4-0.2-1.7-0.3
		c0-0.7,0.1-1.4,0.1-2.2c0.2,0,0.5,0,0.8,0l0.1,1.3c0,0.1,0,0.2,0.1,0.2c0.2,0.2,0.6,0.2,1.1,0.2c0.4,0,0.9-0.1,1.2-0.3
		c0.4-0.2,0.5-0.5,0.5-1.1c0-0.7-0.5-1-1.3-1.3c-1-0.4-1.8-0.9-1.8-2c0-0.9,0.7-1.6,1.3-1.9c0.6-0.3,1.2-0.4,1.9-0.4
		c0.7,0,1.3,0.2,1.7,0.4c-0.1,0.7-0.1,1.4-0.2,2c-0.2,0-0.5,0-0.8,0L77,53.9z"/>
	<path class="st1" d="M79.5,53.8c0-0.3,0-0.5,0-0.8c1.4-0.2,2.3-0.4,2.4-0.4c0.1,0,0.4,0.3,0.5,0.4c-0.4,1.7-1.3,5.4-1.5,6.3
		c0,0.1,0,0.1,0.1,0.1c0.2,0,0.7-0.1,1.3-0.3c0.1,0.2,0.1,0.5,0.1,0.7c-0.7,0.2-1.5,0.4-2.2,0.4c-0.1,0-0.5-0.3-0.6-0.5
		c0.4-1.7,1-4.1,1.4-6.1L79.5,53.8z M83,50.1c0,0.5-0.4,0.9-0.9,0.9c-0.5,0-0.9-0.4-0.9-0.9c0-0.4,0.4-0.9,1-0.9
		C82.7,49.2,83,49.7,83,50.1z"/>
	<path class="st1" d="M88,52.6c0.5,0,0.9,0.1,1.1,0.2c0.1,0,0.1,0,0.2,0c0.3,0,2,0,2.4,0c0,0.2,0,0.5,0,0.8c-0.6,0-1.2,0.1-1.8,0.1
		v0.1c0.2,0.2,0.4,0.8,0.4,1.3c0,0.7-0.2,1.5-0.7,2.2c-0.4,0.6-1.4,1.6-3.1,1.4c-0.6,0.4-1,0.6-1,0.9c0,0.4,0.9,0.4,2.2,0.6
		c1,0.1,1.6,0.2,2,0.4c0.4,0.2,0.8,0.7,0.8,1.3c0,1.3-1.4,2.7-4.5,2.7c-1.9,0-3.2-0.7-3.2-1.7c0-0.3,0.1-0.7,0.4-0.9
		c0.6-0.4,0.9-0.6,1.9-1.1l0-0.1c-0.6-0.2-0.8-0.5-0.8-1.1c0-0.2,0.1-0.3,1.4-1.1v-0.1c-0.7-0.4-1.1-1-1.1-2.1
		C84.6,54.6,85.9,52.6,88,52.6z M87.6,61.1C87,61,86.5,61,86.1,60.9c-1.3,0.8-2,1.1-2,1.8c0,0.8,1.2,1.1,2.1,1.1c1.7,0,3-0.6,3-1.7
		C89.2,61.4,88.8,61.3,87.6,61.1z M87.1,58c1,0,1.9-1.2,1.9-2.9c0-0.5-0.1-0.9-0.2-1.2c-0.2-0.4-0.6-0.5-1-0.5c-1.2,0-2,1.4-2,3
		C85.9,57.5,86.3,58,87.1,58z"/>
	<path class="st1" d="M92.7,53.9c0-0.3,0-0.5,0-0.8c1.2-0.2,2.1-0.5,2.3-0.5c0.1,0,0.4,0.2,0.5,0.4c-0.1,0.5-0.3,1.2-0.5,1.9L95,55
		c1.4-1.6,2.8-2.3,3.6-2.3c0.5,0.1,0.9,0.4,1.1,0.9c0.1,0.2,0.1,0.4,0.1,0.6c0,0.8-0.6,3-1.4,5.3c0,0.1,0,0.1,0.1,0.1
		c0.2,0,0.7-0.1,1.3-0.3c0.1,0.2,0.1,0.5,0.1,0.7c-0.7,0.2-1.6,0.4-2.3,0.4c-0.1,0-0.4-0.2-0.5-0.5c0.3-0.9,0.9-2.7,1.1-3.6
		c0.1-0.5,0.3-1.3,0.3-1.8c0-0.4-0.2-0.7-0.5-0.7c-1.1,0-3.1,1.9-3.4,2.9c-0.2,0.7-0.7,2.8-0.9,3.5c-0.4,0-0.8,0-1.2,0
		c0.4-1.6,1.1-4.5,1.5-6.5L92.7,53.9z"/>
	<path class="st1" d="M103.4,54c0.9-1,1.7-1.4,2.6-1.4c1.3,0,1.9,1,1.9,1.9c-0.1,0.6-0.5,1.3-1,1.6c-1,0.5-2.2,0.7-3.7,0.7
		c-0.1,0.4-0.2,1-0.2,1.4c0,0.8,0.4,1.3,1.2,1.3c0.7,0,1.8-0.4,2.8-0.9c0.1,0.2,0.2,0.5,0.3,0.7c-1,0.6-2.3,1.2-3.5,1.2
		c-0.9,0-2.1-0.7-2.1-2.1C101.7,57.2,102.2,55.3,103.4,54z M104.3,54.2c-0.3,0.4-0.6,0.9-0.9,1.8c1,0,1.9-0.1,2.5-0.4
		c0.4-0.2,0.7-0.5,0.7-1c0-0.6-0.3-1.1-1-1.1C105.1,53.5,104.7,53.8,104.3,54.2z"/>
	<path class="st1" d="M109.6,53.8c0-0.2,0-0.5,0-0.7c1.1-0.2,2.1-0.5,2.2-0.5c0.1,0,0.4,0.2,0.5,0.4c-0.1,0.5-0.3,1.2-0.5,2.2l0.1,0
		c1-1.6,2.1-2.6,2.8-2.6c0.4,0,0.7,0.1,0.9,0.2c0,0.4-0.4,1.2-0.6,1.3c-0.1-0.1-0.5-0.2-0.7-0.2c-0.7,0-2.4,1.9-2.8,3.4
		c-0.1,0.5-0.5,2-0.6,2.7c-0.4,0-0.8,0-1.2,0c0.3-1.4,1-4.5,1.5-6.5L109.6,53.8z"/>
	<path class="st1" d="M130.5,59.4c0,0.2-0.1,0.5-0.2,0.8c-0.8,0-1.6,0.1-2.2,0.1c-0.2-0.4-0.6-1-1-1.5c-1,0.8-2,1.6-4,1.6
		c-1.1,0-1.9-0.3-2.4-0.7c-0.6-0.5-1-1.1-1-2.1c0-1.5,1.1-2.9,3-3.7l0-0.1c-0.8-0.6-1.3-1.3-1.3-2.3c0-0.8,0.4-1.6,1.1-2.1
		c0.5-0.4,1.2-0.7,2.3-0.7c0.8,0,1.4,0.2,1.9,0.7c0.4,0.4,0.7,0.9,0.7,1.6c0,1.3-1,2.3-2.6,3v0.1c1,0.9,2.2,2.2,2.8,3.2
		c0.6-0.7,1-1.7,1.1-2.6c0-0.1,0-0.2-0.1-0.2l-1,0c0-0.3,0.1-0.5,0.1-0.8c0.6,0,1.2,0,1.8,0c0.5,0,1,0,1.5,0c0,0.2-0.1,0.5-0.1,0.8
		l-1,0c-0.4,1.5-1.1,2.7-1.8,3.5c0.3,0.4,0.6,0.9,0.8,1.2c0.1,0.2,0.3,0.3,0.5,0.3L130.5,59.4z M121.8,59c0.4,0.4,1,0.6,1.7,0.6
		c1.2,0,2.3-0.6,3.2-1.4c-0.9-1.4-2.2-2.8-3.3-3.7c-1.1,0.5-2.3,1.4-2.3,2.9C121.1,58,121.3,58.5,121.8,59z M124.1,53.5
		c1.2-0.5,2.1-1.2,2.1-2.5c0-0.5-0.1-0.8-0.4-1.1c-0.3-0.3-0.7-0.4-1.1-0.4c-0.5,0-0.9,0.1-1.3,0.5c-0.4,0.4-0.6,0.8-0.6,1.4
		C122.8,52.3,123.3,52.8,124.1,53.5z"/>
	<path class="st1" d="M138.9,49.6c0,0.9,0,2.4,0.1,4c0,1.6,0.1,3,0.1,4.8h0.1c1.3-2.5,3.2-6.6,4.4-9.1c0.2,0,0.7,0,0.9,0
		c0.3,2.7,0.6,6.3,1,9.2h0.1c0.6-1.6,1.3-3.1,1.8-4.5c0.5-1.2,1.2-3.2,1.5-4.2c0-0.1,0-0.1,0-0.1l-1.6-0.1c0.1-0.2,0.1-0.5,0.2-0.8
		c0.7,0,1.6,0,2.3,0c0.5,0,1,0,1.5,0c0,0.3-0.1,0.6-0.2,0.8l-0.9,0.1c-0.7,1.7-1.3,3.2-2,4.8c-0.8,1.8-1.8,4.1-2.7,6
		c-0.2,0-0.6,0-1,0c-0.4-2.6-0.8-5.9-1.1-8.8h-0.1c-1.5,3.2-3.1,6.2-4.4,8.7c-0.2,0-0.6,0-1,0c-0.2-2.1-0.3-4.2-0.4-6.3
		c-0.1-1.5-0.1-3-0.2-4.4c0,0-0.1-0.1-0.1-0.1l-1-0.1c0.1-0.3,0.1-0.5,0.2-0.8c0.5,0,1.1,0,1.7,0c0.9,0,1.7,0,2.4,0
		c0,0.3-0.1,0.5-0.2,0.8L138.9,49.6z"/>
	<path class="st1" d="M155.2,59.4c-0.7,0.6-1.4,1-2.5,1c-0.9,0-1.5-0.4-1.8-0.8c-0.3-0.3-0.5-1-0.5-1.6c0-1.7,0.7-3.4,1.8-4.4
		c0.8-0.7,1.6-1,2.5-1c0.7,0,1.3,0.3,1.6,0.7s0.7,1.1,0.7,2C157,56.7,156.4,58.3,155.2,59.4z M154.5,58.8c0.6-0.7,1.1-2.3,1.1-3.5
		c0-0.6-0.1-1-0.3-1.3c-0.2-0.3-0.5-0.5-1-0.5c-0.6,0-1.1,0.3-1.6,1c-0.4,0.6-1,2-1,3.5c0,0.5,0.1,0.9,0.3,1.3
		c0.2,0.3,0.6,0.5,1,0.5C153.6,59.6,154.2,59.3,154.5,58.8z"/>
	<path class="st1" d="M158.8,53.8c0-0.2,0-0.5,0-0.7c1.1-0.2,2.1-0.5,2.2-0.5c0.1,0,0.4,0.2,0.5,0.4c-0.1,0.5-0.3,1.2-0.5,2.2l0.1,0
		c1-1.6,2.1-2.6,2.8-2.6c0.4,0,0.7,0.1,0.9,0.2c0,0.4-0.4,1.2-0.6,1.3c-0.1-0.1-0.5-0.2-0.7-0.2c-0.7,0-2.4,1.9-2.8,3.4
		c-0.1,0.5-0.5,2-0.6,2.7c-0.4,0-0.8,0-1.2,0c0.3-1.4,1-4.5,1.5-6.5L158.8,53.8z"/>
	<path class="st1" d="M169.7,58.1c-1.3,1.6-2.7,2.3-3.4,2.4c-0.4-0.1-1-0.4-1.3-0.9c-0.1-0.2-0.2-0.5-0.2-0.7c0-0.8,0.2-1.8,0.6-2.7
		c0.5-1.5,1.8-3.5,3.5-3.5c0.7,0,1.4,0.3,1.8,0.6h0.1c0.3-1.3,0.7-2.9,1-4.2l-1.6,0.1c0-0.3,0-0.5,0-0.7c1.5-0.2,2.4-0.5,2.6-0.5
		s0.3,0.2,0.5,0.4c-0.3,1.3-2.3,9.8-2.6,11.1c0,0.1,0,0.1,0.1,0.1c0.1,0,0.5-0.1,1.1-0.3c0.1,0.2,0.1,0.5,0.2,0.7
		c-0.8,0.3-1.5,0.4-2.1,0.4c-0.1,0-0.4-0.2-0.5-0.4c0.1-0.3,0.2-0.9,0.4-1.8L169.7,58.1z M170,56.4c0.1-0.4,0.4-1.6,0.5-2.1
		c-0.4-0.5-1-0.7-1.6-0.7c-1,0-1.8,1.1-2.3,2.2c-0.4,0.9-0.6,2-0.6,2.8c0,0.6,0.3,0.8,0.7,0.8C167.7,59.4,169.8,57.3,170,56.4z"/>
	<path class="st1" d="M174.6,59.3c0.1,0,0.1,0,0.1-0.1l1.6-9.6l-1.2,0c0.1-0.3,0.1-0.5,0.2-0.8c0.8,0,1.8,0,2.8,0
		c1.1,0,1.8,0,2.6,0.4c1.3,0.5,1.8,1.6,1.8,2.7c0,1.8-1.3,3.1-2.5,3.6c-0.8,0.3-1.7,0.4-2.6,0.4c-0.4,0-0.7,0-0.9,0l-0.6,3.6l2,0.1
		c0,0.3-0.1,0.6-0.2,0.8c-0.7,0-1.7,0-2.6,0c-0.6,0-1.3,0-1.8,0c0.1-0.3,0.1-0.6,0.2-0.8L174.6,59.3z M176.7,54.7
		c0,0.1,0.4,0.2,0.9,0.2c0.7,0,1.4-0.1,1.9-0.4c1-0.5,1.5-1.4,1.5-2.6c0-1.3-0.8-2.3-2.6-2.3c-0.4,0-0.7,0-0.8,0.1L176.7,54.7z"/>
	<path class="st1" d="M183.9,53.8c0-0.2,0-0.5,0-0.7c1.1-0.2,2.1-0.5,2.2-0.5c0.1,0,0.4,0.2,0.5,0.4c-0.1,0.5-0.3,1.2-0.5,2.2l0.1,0
		c1-1.6,2.1-2.6,2.8-2.6c0.4,0,0.7,0.1,0.9,0.2c0,0.4-0.4,1.2-0.6,1.3c-0.1-0.1-0.5-0.2-0.7-0.2c-0.7,0-2.4,1.9-2.8,3.4
		c-0.1,0.5-0.5,2-0.6,2.7c-0.4,0-0.8,0-1.2,0c0.3-1.4,1-4.5,1.5-6.5L183.9,53.8z"/>
	<path class="st1" d="M191.7,54c0.9-1,1.7-1.4,2.6-1.4c1.3,0,1.9,1,1.9,1.9c-0.1,0.6-0.5,1.3-1,1.6c-1,0.5-2.2,0.7-3.7,0.7
		c-0.1,0.4-0.2,1-0.2,1.4c0,0.8,0.4,1.3,1.2,1.3c0.7,0,1.8-0.4,2.8-0.9c0.1,0.2,0.2,0.5,0.3,0.7c-1,0.6-2.3,1.2-3.5,1.2
		c-0.9,0-2.1-0.7-2.1-2.1C190,57.2,190.5,55.3,191.7,54z M192.6,54.2c-0.3,0.4-0.6,0.9-0.9,1.8c1,0,1.9-0.1,2.5-0.4
		c0.4-0.2,0.7-0.5,0.7-1c0-0.6-0.3-1.1-1-1.1C193.4,53.5,193,53.8,192.6,54.2z"/>
	<path class="st1" d="M202,53.9c0-0.1,0-0.2-0.1-0.2c-0.2-0.1-0.5-0.2-0.9-0.2c-0.3,0-0.7,0-1,0.2c-0.3,0.2-0.7,0.5-0.7,1.1
		c0,0.7,0.4,0.9,1.2,1.2c1.2,0.5,1.9,1,1.9,2c0,0.8-0.4,1.6-1.2,2c-0.5,0.3-1.1,0.4-2.2,0.4c-0.7,0-1.4-0.2-1.7-0.3
		c0-0.7,0.1-1.4,0.1-2.2c0.2,0,0.5,0,0.8,0l0.1,1.3c0,0.1,0,0.2,0.1,0.2c0.2,0.2,0.6,0.2,1.1,0.2c0.4,0,0.9-0.1,1.2-0.3
		c0.4-0.2,0.5-0.5,0.5-1.1c0-0.7-0.5-1-1.3-1.3c-1-0.4-1.8-0.9-1.8-2c0-0.9,0.7-1.6,1.3-1.9c0.6-0.3,1.2-0.4,1.9-0.4
		c0.7,0,1.3,0.2,1.7,0.4c-0.1,0.7-0.1,1.4-0.2,2c-0.2,0-0.5,0-0.8,0L202,53.9z"/>
	<path class="st1" d="M208.8,53.9c0-0.1,0-0.2-0.1-0.2c-0.2-0.1-0.5-0.2-0.9-0.2c-0.3,0-0.7,0-1,0.2c-0.3,0.2-0.7,0.5-0.7,1.1
		c0,0.7,0.4,0.9,1.2,1.2c1.2,0.5,1.9,1,1.9,2c0,0.8-0.4,1.6-1.2,2c-0.5,0.3-1.1,0.4-2.2,0.4c-0.7,0-1.4-0.2-1.7-0.3
		c0-0.7,0.1-1.4,0.1-2.2c0.2,0,0.5,0,0.8,0l0.1,1.3c0,0.1,0,0.2,0.1,0.2c0.2,0.2,0.6,0.2,1.1,0.2c0.4,0,0.9-0.1,1.2-0.3
		c0.4-0.2,0.5-0.5,0.5-1.1c0-0.7-0.5-1-1.3-1.3c-1-0.4-1.8-0.9-1.8-2c0-0.9,0.7-1.6,1.3-1.9c0.6-0.3,1.2-0.4,1.9-0.4
		c0.7,0,1.3,0.2,1.7,0.4c-0.1,0.7-0.1,1.4-0.2,2c-0.2,0-0.5,0-0.8,0L208.8,53.9z"/>
	<path class="st1" d="M223.6,50.1c0-0.1,0-0.2-0.1-0.2c-0.3-0.2-0.9-0.3-1.4-0.3c-1,0-2,0.3-2.8,1.1c-1.5,1.3-2.2,3.2-2.2,4.9
		c0,1.1,0.2,1.9,0.7,2.6c0.5,0.7,1.4,1.2,2.6,1.2c1,0,2.3-0.4,3.1-0.7c0,0.3,0.1,0.6,0.1,0.9c-1.4,0.5-2.6,0.8-3.5,0.8
		c-1.3,0-2.3-0.4-3.1-1.2c-0.9-0.8-1.3-2.1-1.3-3.5c0-2.6,1.5-4.8,3-5.9c1.4-1,2.8-1.3,4-1.3c1,0,1.9,0.2,2.2,0.4
		c-0.1,1-0.2,2-0.4,3c-0.3,0-0.6,0-0.9,0L223.6,50.1z"/>
	<path class="st1" d="M230.2,59.4c-0.7,0.6-1.4,1-2.5,1c-0.9,0-1.5-0.4-1.8-0.8c-0.3-0.3-0.5-1-0.5-1.6c0-1.7,0.7-3.4,1.8-4.4
		c0.8-0.7,1.6-1,2.5-1c0.7,0,1.3,0.3,1.6,0.7s0.7,1.1,0.7,2C232,56.7,231.4,58.3,230.2,59.4z M229.6,58.8c0.6-0.7,1.1-2.3,1.1-3.5
		c0-0.6-0.1-1-0.3-1.3c-0.2-0.3-0.5-0.5-1-0.5c-0.6,0-1.1,0.3-1.6,1c-0.4,0.6-1,2-1,3.5c0,0.5,0.1,0.9,0.3,1.3
		c0.2,0.3,0.6,0.5,1,0.5C228.6,59.6,229.2,59.3,229.6,58.8z"/>
	<path class="st1" d="M233.8,53.9c0-0.3,0-0.5,0-0.8c1.2-0.2,2.1-0.5,2.3-0.5c0.1,0,0.4,0.2,0.5,0.4c-0.1,0.5-0.3,1.2-0.5,1.9
		l0.1,0.1c1.4-1.6,2.8-2.3,3.6-2.3c0.5,0.1,0.9,0.4,1.1,0.9c0.1,0.2,0.1,0.4,0.1,0.6c0,0.8-0.6,3-1.4,5.3c0,0.1,0,0.1,0.1,0.1
		c0.2,0,0.7-0.1,1.3-0.3c0.1,0.2,0.1,0.5,0.1,0.7c-0.7,0.2-1.6,0.4-2.3,0.4c-0.1,0-0.4-0.2-0.5-0.5c0.3-0.9,0.9-2.7,1.1-3.6
		c0.1-0.5,0.3-1.3,0.3-1.8c0-0.4-0.2-0.7-0.5-0.7c-1.1,0-3.1,1.9-3.4,2.9c-0.2,0.7-0.7,2.8-0.9,3.5c-0.4,0-0.8,0-1.2,0
		c0.4-1.6,1.1-4.5,1.5-6.5L233.8,53.9z"/>
	<path class="st1" d="M247.4,53.9c0-0.1,0-0.2-0.1-0.2c-0.2-0.1-0.5-0.2-0.9-0.2c-0.3,0-0.7,0-1,0.2c-0.3,0.2-0.7,0.5-0.7,1.1
		c0,0.7,0.4,0.9,1.2,1.2c1.2,0.5,1.9,1,1.9,2c0,0.8-0.4,1.6-1.2,2c-0.5,0.3-1.1,0.4-2.2,0.4c-0.7,0-1.4-0.2-1.7-0.3
		c0-0.7,0.1-1.4,0.1-2.2c0.2,0,0.5,0,0.8,0l0.1,1.3c0,0.1,0,0.2,0.1,0.2c0.2,0.2,0.6,0.2,1.1,0.2c0.4,0,0.9-0.1,1.2-0.3
		c0.4-0.2,0.5-0.5,0.5-1.1c0-0.7-0.5-1-1.3-1.3c-1-0.4-1.8-0.9-1.8-2c0-0.9,0.7-1.6,1.3-1.9c0.6-0.3,1.2-0.4,1.9-0.4
		c0.7,0,1.3,0.2,1.7,0.4c-0.1,0.7-0.1,1.4-0.2,2c-0.2,0-0.5,0-0.8,0L247.4,53.9z"/>
	<path class="st1" d="M250.1,53.9c0-0.3-0.1-0.5-0.1-0.7c1.2-0.2,2.3-0.5,2.4-0.5c0.1,0,0.4,0.3,0.4,0.5c-0.4,1.1-0.9,3-1.1,3.9
		c-0.1,0.6-0.3,1.3-0.3,1.7c0,0.5,0.2,0.7,0.5,0.7c0.9,0,2.8-2,3.1-2.9c0.2-0.6,0.6-2.7,0.8-3.7c0.4,0,0.8,0,1.2,0
		c-0.2,0.9-1.1,5-1.4,6.6c0,0.1,0,0.1,0.1,0.1c0.2,0,0.7-0.1,1.3-0.3c0.1,0.2,0.1,0.5,0.2,0.7c-0.8,0.3-1.6,0.5-2.2,0.5
		c-0.1,0-0.4-0.3-0.5-0.5c0.1-0.3,0.2-1,0.4-1.7l-0.1,0c-1.3,1.4-2.5,2.2-3.3,2.3c-0.4-0.1-0.9-0.4-1.1-0.7
		c-0.1-0.2-0.2-0.4-0.2-0.7c0-0.9,0.6-3.4,1.2-5.2L250.1,53.9z"/>
	<path class="st1" d="M259.6,49.1c0-0.3,0-0.5,0-0.8c1.6-0.2,2.5-0.5,2.7-0.5c0.1,0,0.4,0.2,0.5,0.4c-0.8,3.3-2.2,9.3-2.6,11.1
		c0,0.1,0,0.1,0.1,0.1c0.2,0,0.9-0.1,1.5-0.3c0.1,0.3,0.1,0.5,0.1,0.8c-0.9,0.3-1.8,0.4-2.4,0.4c-0.1,0-0.4-0.3-0.6-0.5
		c0.4-1.8,2-8.5,2.5-10.8L259.6,49.1z"/>
	<path class="st1" d="M266.1,59.4c0.5,0,1.3-0.1,2-0.4c0,0.2,0.1,0.5,0.1,0.8c-1,0.4-2.1,0.5-2.7,0.5c-0.5,0-1.2-0.4-1.4-1.1
		c0-0.1-0.1-0.2-0.1-0.3c0-0.5,0.5-2.7,0.6-3.1c0.1-0.6,0.4-1.6,0.5-2.1c-0.4,0-0.9,0-1.4,0c0.1-0.3,0.1-0.5,0.2-0.8
		c0.4,0,0.9-0.1,1.3-0.1c0.1,0,0.1-0.1,0.1-0.1c0.1-0.5,0.3-1.1,0.4-1.6c0.4-0.2,1-0.3,1.1-0.3c0,0,0.1,0,0.1,0.1
		c-0.1,0.5-0.3,1.3-0.4,2c0.9,0,1.8,0,2.7,0c0,0.3-0.1,0.6-0.2,0.9c-0.8,0-1.7,0-2.7,0c-0.1,0.5-0.4,1.5-0.5,2.1
		c-0.2,0.8-0.5,2.4-0.5,2.8C265.3,59.2,265.6,59.4,266.1,59.4z"/>
	<path class="st1" d="M274.4,58.1c-1.6,1.8-2.7,2.3-3.3,2.3c-0.4-0.1-1-0.4-1.2-0.9c-0.1-0.2-0.2-0.4-0.2-0.7c0-0.6,0.2-1.7,0.6-2.6
		c0.5-1.4,1.8-3.5,3.4-3.5c0.7,0,1.3,0.3,1.7,0.9h0.1l0.4-0.9c0.3,0.1,0.7,0.2,1,0.3c-0.5,1.6-1.3,4.7-1.6,6.5c0,0.1,0,0.1,0.1,0.1
		c0.1,0,0.6-0.1,1.2-0.3c0.1,0.2,0.1,0.5,0.2,0.7c-0.7,0.3-1.6,0.5-2.2,0.5c-0.1,0-0.4-0.2-0.5-0.4c0.1-0.3,0.2-1,0.4-1.8
		L274.4,58.1z M271.7,55.7c-0.4,1-0.7,2.1-0.7,2.9c0,0.5,0.3,0.8,0.6,0.8c0.8,0,2.8-1.9,3.1-2.8c0.1-0.3,0.4-1.6,0.5-2.1
		c-0.4-0.6-0.9-0.9-1.5-0.9C272.8,53.6,272.1,54.7,271.7,55.7z"/>
	<path class="st1" d="M278.6,53.9c0-0.3,0-0.5,0-0.8c1.2-0.2,2.1-0.5,2.3-0.5c0.1,0,0.4,0.2,0.5,0.4c-0.1,0.5-0.3,1.2-0.5,1.9
		L281,55c1.4-1.6,2.8-2.3,3.6-2.3c0.5,0.1,0.9,0.4,1.1,0.9c0.1,0.2,0.1,0.4,0.1,0.6c0,0.8-0.6,3-1.4,5.3c0,0.1,0,0.1,0.1,0.1
		c0.2,0,0.7-0.1,1.3-0.3c0.1,0.2,0.1,0.5,0.1,0.7c-0.7,0.2-1.6,0.4-2.3,0.4c-0.1,0-0.4-0.2-0.5-0.5c0.3-0.9,0.9-2.7,1.1-3.6
		c0.1-0.5,0.3-1.3,0.3-1.8c0-0.4-0.2-0.7-0.5-0.7c-1.1,0-3.1,1.9-3.4,2.9c-0.2,0.7-0.7,2.8-0.9,3.5c-0.4,0-0.8,0-1.2,0
		c0.4-1.6,1.1-4.5,1.5-6.5L278.6,53.9z"/>
	<path class="st1" d="M290.4,59.4c0.5,0,1.3-0.1,2-0.4c0,0.2,0.1,0.5,0.1,0.8c-1,0.4-2.1,0.5-2.7,0.5c-0.5,0-1.2-0.4-1.4-1.1
		c0-0.1-0.1-0.2-0.1-0.3c0-0.5,0.5-2.7,0.6-3.1c0.1-0.6,0.4-1.6,0.5-2.1c-0.4,0-0.9,0-1.4,0c0.1-0.3,0.1-0.5,0.2-0.8
		c0.4,0,0.9-0.1,1.3-0.1c0.1,0,0.1-0.1,0.1-0.1c0.1-0.5,0.3-1.1,0.4-1.6c0.4-0.2,1-0.3,1.1-0.3c0,0,0.1,0,0.1,0.1
		c-0.1,0.5-0.3,1.3-0.4,2c0.9,0,1.8,0,2.7,0c0,0.3-0.1,0.6-0.2,0.9c-0.8,0-1.7,0-2.7,0c-0.1,0.5-0.4,1.5-0.5,2.1
		c-0.2,0.8-0.5,2.4-0.5,2.8C289.6,59.2,289.9,59.4,290.4,59.4z"/>
</g>
</svg>
